HIERARCHY
ROOT Hips
{
	OFFSET 0.000000 0.000000 0.000000
	CHANNELS 6 Xposition Yposition Zposition Xrotation Yrotation Zrotation
	JOINT LeftUpLeg_virtual
	{
		OFFSET 0.000000 0.000000 0.000000
		CHANNELS 3 Xrotation Yrotation Zrotation
		JOINT LeftUpLeg
		{
			OFFSET 11.394100 -6.187798 -0.413800
			CHANNELS 3 Xrotation Yrotation Zrotation
			JOINT LeftLeg
			{
				OFFSET 0.430247 -32.302673 3.732800
				CHANNELS 3 Xrotation Yrotation Zrotation
				JOINT LeftFoot
				{
					OFFSET -0.430247 -48.264931 -6.423300
					CHANNELS 3 Xrotation Yrotation Zrotation
					JOINT LeftToeBase
					{
						OFFSET 4.230900 -16.068199 23.438400
						CHANNELS 3 Xrotation Yrotation Zrotation
						JOINT LeftToe_End
						{
							OFFSET 4.510700 0.695400 19.974600
							CHANNELS 3 Xrotation Yrotation Zrotation
							End Site
							{
								OFFSET 0 0 0
							}
						}
					}
				}
			}
		}
	}
	JOINT RightUpLeg_virtual
	{
		OFFSET 0.000000 0.000000 0.000000
		CHANNELS 3 Xrotation Yrotation Zrotation
		JOINT RightUpLeg
		{
			OFFSET -11.333700 -6.187798 -0.413800
			CHANNELS 3 Xrotation Yrotation Zrotation
			JOINT RightLeg
			{
				OFFSET -0.430392 -32.302628 3.733000
				CHANNELS 3 Xrotation Yrotation Zrotation
				JOINT RightFoot
				{
					OFFSET 0.430392 -48.264973 -6.423500
					CHANNELS 3 Xrotation Yrotation Zrotation
					JOINT RightToeBase
					{
						OFFSET -4.230900 -16.068199 23.438400
						CHANNELS 3 Xrotation Yrotation Zrotation
						JOINT RightToe_End
						{
							OFFSET -4.510700 0.695400 19.974600
							CHANNELS 3 Xrotation Yrotation Zrotation
							End Site
							{
								OFFSET 0 0 0
							}
						}
					}
				}
			}
		}
	}
	JOINT Spine_virtual
	{
		OFFSET 0.000000 0.000000 0.000000
		CHANNELS 3 Xrotation Yrotation Zrotation
		JOINT Spine
		{
			OFFSET -0.002400 12.777504 0.315300
			CHANNELS 3 Xrotation Yrotation Zrotation
			JOINT Spine1
			{
				OFFSET -0.002067 5.816869 0.032633
				CHANNELS 3 Xrotation Yrotation Zrotation
				JOINT Spine1_split
				{
					OFFSET -0.002067 5.816869 0.032633
					CHANNELS 3 Xrotation Yrotation Zrotation
					JOINT Spine2
					{
						OFFSET -0.002067 5.816869 0.032633
						CHANNELS 3 Xrotation Yrotation Zrotation
						JOINT Neck_virtual
						{
							OFFSET 0.000000 0.000000 0.000000
							CHANNELS 3 Xrotation Yrotation Zrotation
							JOINT Neck
							{
								OFFSET -0.003700 21.199493 -0.826900
								CHANNELS 3 Xrotation Yrotation Zrotation
								JOINT Head
								{
									OFFSET 0.000000 20.442200 4.834800
									CHANNELS 3 Xrotation Yrotation Zrotation
									JOINT HeadTop_End
									{
										OFFSET 0.000000 34.668396 4.968400
										CHANNELS 3 Xrotation Yrotation Zrotation
										End Site
										{
											OFFSET 0 0 0
										}
									}
								}
							}
						}
						JOINT LeftShoulder_virtual
						{
							OFFSET 0.000000 0.000000 0.000000
							CHANNELS 3 Xrotation Yrotation Zrotation
							JOINT LeftShoulder
							{
								OFFSET 3.288150 8.794197 -1.372250
								CHANNELS 3 Xrotation Yrotation Zrotation
								JOINT LeftShoulder_split
								{
									OFFSET 3.288150 8.794197 -1.372250
									CHANNELS 3 Xrotation Yrotation Zrotation
									JOINT LeftArm
									{
										OFFSET 11.953299 -2.279007 -0.146200
										CHANNELS 3 Xrotation Yrotation Zrotation
										JOINT LeftForeArm
										{
											OFFSET 18.448900 0.000000 0.000000
											CHANNELS 3 Xrotation Yrotation Zrotation
											JOINT LeftHand
											{
												OFFSET 29.527798 0.000000 0.000000
												CHANNELS 3 Xrotation Yrotation Zrotation
												End Site
												{
													OFFSET 0 0 0
												}
											}
										}
									}
								}
							}
						}
						JOINT RightShoulder_virtual
						{
							OFFSET 0.000000 0.000000 0.000000
							CHANNELS 3 Xrotation Yrotation Zrotation
							JOINT RightShoulder
							{
								OFFSET -3.249400 8.794197 -1.372250
								CHANNELS 3 Xrotation Yrotation Zrotation
								JOINT RightShoulder_split
								{
									OFFSET -3.249400 8.794197 -1.372250
									CHANNELS 3 Xrotation Yrotation Zrotation
									JOINT RightArm
									{
										OFFSET -11.953299 -2.279007 -0.146200
										CHANNELS 3 Xrotation Yrotation Zrotation
										JOINT RightForeArm
										{
											OFFSET -18.448900 0.000000 0.000000
											CHANNELS 3 Xrotation Yrotation Zrotation
											JOINT RightHand
											{
												OFFSET -29.527802 0.000000 0.000000
												CHANNELS 3 Xrotation Yrotation Zrotation
												End Site
												{
													OFFSET 0 0 0
												}
											}
										}
									}
								}
							}
						}
					}
				}
			}
		}
	}
}
MOTION
Frames: 5
Frame Time: 0.03333333
-0.010485 110.244919 -3.239235 0.000000 0.000000 0.000000 -89.650946 0.347649 0.822780 -5.938813 17.094102 19.425854 4.625841 7.592344 0.307302 29.944885 29.308605 -30.969416 -4.397736 -0.000018 0.000002 0.000000 0.000000 0.000000 -89.650946 0.347649 0.822780 -5.587020 -16.799861 -12.452335 3.805784 -7.590431 -7.584169 38.977216 -29.645815 30.174123 -9.125963 -0.000018 -0.000008 0.000000 0.000000 0.000000 -89.650946 0.347649 0.822780 1.063754 -1.172274 0.843930 -0.317535 -2.434544 0.230484 0.000000 0.000000 0.000000 0.000000 0.000000 0.000000 -0.303405 -2.418347 0.331942 -10.007522 0.102137 -1.808070 8.692135 -2.170252 1.510696 0.000000 0.000000 0.000000 -0.303405 -2.418347 0.331942 0.422235 -0.103001 -4.005443 0.000000 0.000000 0.000000 35.263669 -28.378553 -54.538398 -0.000046 -80.454178 -0.000044 0.000000 0.000000 0.000000 -0.303405 -2.418347 0.331942 0.646687 1.792567 13.881981 0.000000 0.000000 0.000000 39.542943 30.913354 33.651659 -179.999814 78.652190 179.999827 0.000000 0.000000 0.000000 
-0.000206 110.238205 -3.198799 0.000000 0.000000 0.000000 -89.707759 0.540155 1.085012 -5.981770 16.704109 19.101654 4.978163 7.356353 0.406313 29.956725 29.304749 -30.826030 -5.419499 0.000011 0.000005 0.000000 0.000000 0.000000 -89.707759 0.540155 1.085012 -5.588137 -17.073962 -13.058150 3.853362 -6.997849 -7.047689 40.176119 -29.673333 30.217293 -8.902596 0.000006 -0.000020 0.000000 0.000000 0.000000 -89.707759 0.540155 1.085012 1.020931 -1.093607 0.844112 -0.521705 -2.314062 0.161337 0.000000 0.000000 0.000000 0.000000 0.000000 0.000000 -0.492039 -2.319870 0.287191 -9.946362 0.033120 -1.614218 8.871006 -2.467348 1.625963 0.000000 0.000000 0.000000 -0.492039 -2.319870 0.287191 0.507664 -1.375824 -4.005944 0.000000 0.000000 0.000000 35.944506 -28.114964 -54.137090 0.000233 -80.729257 0.000235 0.000000 0.000000 0.000000 -0.492039 -2.319870 0.287191 0.569203 1.762515 13.812979 0.000000 0.000000 0.000000 35.720701 29.082102 39.718585 -179.999800 79.219881 179.999814 0.000000 0.000000 0.000000 
0.085221 110.227730 -3.182663 0.000000 0.000000 0.000000 -89.779995 0.739985 1.331992 -6.052883 16.284127 18.757725 5.452794 7.114373 0.506062 30.007466 29.280430 -30.548199 -6.413014 0.000002 -0.000031 0.000000 0.000000 0.000000 -89.779995 0.739985 1.331992 -5.591927 -17.344260 -13.715209 3.617858 -6.597728 -6.521214 42.071636 -29.705077 30.313817 -8.688609 0.000017 0.000008 0.000000 0.000000 0.000000 -89.779995 0.739985 1.331992 0.978133 -1.015928 0.846714 -0.725585 -2.193579 0.092203 0.000000 0.000000 0.000000 0.000000 0.000000 0.000000 -0.680580 -2.221394 0.242446 -9.759804 -0.038815 -1.424881 9.367747 -2.767413 1.745067 0.000000 0.000000 0.000000 -0.680580 -2.221394 0.242446 0.624279 -2.705507 -3.943882 0.000000 0.000000 0.000000 36.534682 -27.843700 -53.883000 0.000017 -80.975875 0.000035 0.000000 0.000000 0.000000 -0.680580 -2.221394 0.242446 0.504911 1.691344 13.749588 0.000000 0.000000 0.000000 30.303408 27.254043 45.899349 -179.999691 81.105211 179.999677 0.000000 0.000000 0.000000 
0.199471 110.230392 -3.160843 0.000000 0.000000 0.000000 -89.779517 0.908860 1.576625 -6.203399 15.908535 18.395480 5.940774 6.877185 0.605113 30.045111 29.259554 -30.267918 -7.209246 -0.000016 -0.000016 0.000000 0.000000 0.000000 -89.779517 0.908860 1.576625 -5.765438 -17.587037 -14.341125 3.649373 -6.178438 -6.086922 42.649450 -29.730482 30.378574 -8.477400 0.000013 -0.000011 0.000000 0.000000 0.000000 -89.779517 0.908860 1.576625 0.932509 -0.933217 0.837981 -0.917815 -2.053075 0.021352 0.000000 0.000000 0.000000 0.000000 0.000000 0.000000 -0.862914 -2.122840 0.197563 -9.446781 -0.103801 -1.268105 10.147293 -3.061075 1.855787 0.000000 0.000000 0.000000 -0.862914 -2.122840 0.197563 0.742968 -4.009705 -3.933647 0.000000 0.000000 0.000000 37.120203 -27.535300 -53.596317 0.000668 -81.245114 0.000664 0.000000 0.000000 0.000000 -0.862914 -2.122840 0.197563 0.491466 1.455982 13.715576 0.000000 0.000000 0.000000 24.469482 26.105041 50.660620 -179.999595 84.099532 179.999609 0.000000 0.000000 0.000000 
0.321551 110.271194 -3.137138 0.000000 0.000000 0.000000 -89.554182 0.987651 1.786966 -6.621147 15.608234 18.085955 6.514977 6.692304 0.710008 30.113751 29.233896 -29.996292 -7.998346 -0.000028 -0.000004 0.000000 0.000000 0.000000 -89.554182 0.987651 1.786966 -6.224495 -17.744319 -14.752949 3.795709 -5.710382 -5.969643 43.026418 -29.769058 30.392552 -8.263867 0.000015 -0.000000 0.000000 0.000000 0.000000 -89.554182 0.987651 1.786966 0.872473 -0.839128 0.828095 -1.068404 -1.863814 -0.054219 0.000000 0.000000 0.000000 0.000000 0.000000 0.000000 -1.015963 -2.024544 0.151549 -9.006235 -0.155154 -1.157053 11.174300 -3.338740 1.945955 0.000000 0.000000 0.000000 -1.015963 -2.024544 0.151549 0.858782 -5.206887 -3.948532 0.000000 0.000000 0.000000 37.610952 -27.241233 -53.302564 0.000220 -81.497742 0.000239 0.000000 0.000000 0.000000 -1.015963 -2.024544 0.151549 0.565613 0.926265 13.758621 0.000000 0.000000 0.000000 17.972832 25.016662 55.305599 -179.996057 87.680491 179.996057 0.000000 0.000000 0.000000 
